<svg width="755" height="873" viewBox="0 0 755 873" fill="none" xmlns="http://www.w3.org/2000/svg">
<path d="M114 27C289.89 27 465.78 27 647 27C647 53.73 647 80.46 647 108C632.81 108 618.62 108 604 108C604 167.07 604 226.14 604 287C595.75 287 587.5 287 579 287C579 303.83 579 320.66 579 338C571.08 338 563.16 338 555 338C555 346.58 555 355.16 555 364C546.75 364 538.5 364 530 364C530 372.25 530 380.5 530 389C521.75 389 513.5 389 505 389C505 397.25 505 405.5 505 414C496.42 414 487.84 414 479 414C479 405.42 479 396.84 479 388C477.02 388.33 475.04 388.66 473 389C471.421 389.074 469.839 389.108 468.258 389.098C467.501 389.095 466.745 389.093 465.965 389.09C464.559 389.076 464.559 389.076 463.125 389.062C458.608 389.032 458.608 389.032 454 389C454 396.92 454 404.84 454 413C461.92 413 469.84 413 478 413C478 421.58 478 430.16 478 439C470.08 439 462.16 439 454 439C454 430.75 454 422.5 454 414C445.42 414 436.84 414 428 414C428 422.25 428 430.5 428 439C436.25 439 444.5 439 453 439C453 455.5 453 472 453 489C461.58 489 470.16 489 479 489C479 497.25 479 505.5 479 514C487.25 514 495.5 514 504 514C504 522.58 504 531.16 504 540C512.58 540 521.16 540 530 540C530 548.58 530 557.16 530 566C538.25 566 546.5 566 555 566C555 574.58 555 583.16 555 592C562.92 592 570.84 592 579 592C579 600.58 579 609.16 579 618C586.92 618 594.84 618 603 618C603 676.08 603 734.16 603 794C617.19 794 631.38 794 646 794C646 820.07 646 846.14 646 873C470.44 873 294.88 873 114 873C114 846.93 114 820.86 114 794C128.19 794 142.38 794 157 794C157 736.25 157 678.5 157 619C164.92 619 172.84 619 181 619C181 609.76 181 600.52 181 591C189.25 591 197.5 591 206 591C206 582.75 206 574.5 206 566C214.91 566 223.82 566 233 566C232.67 565.34 232.34 564.68 232 564C231.915 562.187 231.893 560.37 231.902 558.555C231.905 557.585 231.907 556.616 231.91 555.617C231.919 554.382 231.928 553.147 231.938 551.875C231.958 547.956 231.979 544.037 232 540C240.25 540 248.5 540 257 540C257 531.42 257 522.84 257 514C265.91 514 274.82 514 284 514C284 505.75 284 497.5 284 489C292.25 489 300.5 489 309 489C309 472.5 309 456 309 439C300.75 439 292.5 439 284 439C284 430.75 284 422.5 284 414C275.42 414 266.84 414 258 414C258 405.75 258 397.5 258 389C249.42 389 240.84 389 232 389C232 380.75 232 372.5 232 364C223.75 364 215.5 364 207 364C207 355.42 207 346.84 207 338C198.42 338 189.84 338 181 338C181 321.17 181 304.34 181 287C173.08 287 165.16 287 157 287C157 227.93 157 168.86 157 108C142.81 108 128.62 108 114 108C114 81.27 114 54.54 114 27Z" fill="#4A7C59"/>
<path d="M114 27C289.89 27 465.78 27 647 27C647 53.73 647 80.46 647 108C632.81 108 618.62 108 604 108C604 167.07 604 226.14 604 287C595.75 287 587.5 287 579 287C579 303.83 579 320.66 579 338C571.08 338 563.16 338 555 338C555 346.58 555 355.16 555 364C546.75 364 538.5 364 530 364C530 372.25 530 380.5 530 389C521.75 389 513.5 389 505 389C505 397.25 505 405.5 505 414C496.42 414 487.84 414 479 414C479 405.42 479 396.84 479 388C477.02 388.33 475.04 388.66 473 389C471.421 389.074 469.839 389.108 468.258 389.098C467.501 389.095 466.745 389.093 465.965 389.09C464.559 389.076 464.559 389.076 463.125 389.062C458.608 389.032 458.608 389.032 454 389C454 396.92 454 404.84 454 413C461.92 413 469.84 413 478 413C478 421.58 478 430.16 478 439C470.08 439 462.16 439 454 439C454 430.75 454 422.5 454 414C445.42 414 436.84 414 428 414C428 405.42 428 396.84 428 388C436.25 388 444.5 388 453 388C453 379.75 453 371.5 453 363C461.58 363 470.16 363 479 363C479 354.75 479 346.5 479 338C487.25 338 495.5 338 504 338C504 329.75 504 321.5 504 313C512.25 313 520.5 313 529 313C529 295.84 529 278.68 529 261C521.08 261 513.16 261 505 261C505 252.75 505 244.5 505 236C521.5 236 538 236 555 236C555 252.5 555 269 555 286C562.59 286 570.18 286 578 286C578 244.42 578 202.84 578 160C446.99 160 315.98 160 181 160C181 201.91 181 243.82 181 287C173.08 287 165.16 287 157 287C157 227.93 157 168.86 157 108C142.81 108 128.62 108 114 108C114 81.27 114 54.54 114 27Z" fill="#D4A24C"/>
<path d="M252 592C257.909 591.969 257.909 591.969 263.938 591.938C265.181 591.928 266.425 591.919 267.707 591.91C269.165 591.906 269.165 591.906 270.652 591.902C272.153 591.894 272.153 591.894 273.683 591.886C276 592 276 592 277 593C277.087 594.927 277.107 596.857 277.098 598.785C277.094 599.955 277.091 601.125 277.088 602.33C277.08 603.562 277.071 604.793 277.062 606.062C277.058 607.298 277.053 608.534 277.049 609.807C277.037 612.871 277.019 615.936 277 619C268.75 619 260.5 619 252 619C252 635.5 252 652 252 669C244.74 669 237.48 669 230 669C230 685.83 230 702.66 230 720C246.83 720 263.66 720 281 720C281 728.58 281 737.16 281 746C346.34 746 411.68 746 479 746C479 737.42 479 728.84 479 720C503.75 720 528.5 720 554 720C554 711.09 554 702.18 554 693C562.25 693 570.5 693 579 693C579 668.25 579 643.5 579 618C586.92 618 594.84 618 603 618C603 676.08 603 734.16 603 794C617.19 794 631.38 794 646 794C646 820.07 646 846.14 646 873C470.44 873 294.88 873 114 873C114 846.93 114 820.86 114 794C128.19 794 142.38 794 157 794C157 736.25 157 678.5 157 619C164.92 619 172.84 619 181 619C181 669.49 181 719.98 181 772C213.67 772 246.34 772 280 772C280 763.42 280 754.84 280 746C255.25 746 230.5 746 205 746C205 720.59 205 695.18 205 669C212.26 669 219.52 669 227 669C227 652.17 227 635.34 227 618C235.25 618 243.5 618 252 618C252 609.42 252 600.84 252 592Z" fill="#D4A24C"/>
<path d="M182 160C312.68 160 443.36 160 578 160C578 201.58 578 243.16 578 286C570.41 286 562.82 286 555 286C555 269.5 555 253 555 236C538.17 236 521.34 236 504 236C504 243.92 504 251.84 504 260C447.57 260.495 447.57 260.495 390 261C390 252.42 390 243.84 390 235C371.19 235 352.38 235 333 235C333 227.08 333 219.16 333 211C297.03 211 261.06 211 224 211C224 218.92 224 226.84 224 235C218.06 235 212.12 235 206 235C206 251.83 206 268.66 206 286C198.08 286 190.16 286 182 286C182 244.42 182 202.84 182 160Z" fill="#4A7C59"/>
<path d="M139 53C298.39 53 457.78 53 622 53C622 62.24 622 71.48 622 81C462.61 81 303.22 81 139 81C139 71.76 139 62.52 139 53Z" fill="#4A7C59"/>
<path d="M114 27C289.56 27 465.12 27 646 27C646 53.4 646 79.8 646 107C632.14 107 618.28 107 604 107C604 106.67 604 106.34 604 106C617.53 106 631.06 106 645 106C645 80.26 645 54.52 645 28C470.43 28 295.86 28 116 28C116 53.74 116 79.48 116 106C129.448 105.96 129.448 105.96 142.896 105.91C144.575 105.907 146.254 105.904 147.934 105.902C148.814 105.897 149.694 105.892 150.601 105.887C152.734 105.887 154.867 105.938 157 106C158 107 158 107 158.123 109.919C158.122 111.897 158.122 111.897 158.12 113.916C158.121 114.648 158.122 115.379 158.123 116.133C158.125 118.604 158.119 121.075 158.114 123.545C158.113 125.309 158.113 127.073 158.114 128.836C158.114 133.64 158.108 138.443 158.101 143.247C158.095 148.261 158.095 153.275 158.093 158.289C158.09 167.791 158.082 177.293 158.072 186.796C158.061 197.61 158.055 208.425 158.05 219.24C158.04 241.493 158.022 263.747 158 286C165.26 286 172.52 286 180 286C180 244.09 180 202.18 180 159C230.813 158.978 281.626 158.959 332.44 158.949C338.432 158.948 344.424 158.946 350.416 158.945C351.609 158.945 352.802 158.945 354.031 158.944C373.375 158.94 392.719 158.932 412.063 158.923C431.896 158.914 451.729 158.908 471.562 158.906C483.81 158.905 496.059 158.9 508.307 158.892C516.694 158.887 525.081 158.885 533.468 158.887C538.315 158.887 543.161 158.886 548.008 158.881C552.437 158.876 556.867 158.876 561.296 158.879C562.906 158.88 564.515 158.878 566.125 158.875C568.299 158.871 570.472 158.873 572.646 158.877C573.857 158.877 575.069 158.876 576.317 158.876C579 159 579 159 580 160C580.096 161.62 580.122 163.243 580.12 164.866C580.122 166.445 580.122 166.445 580.124 168.057C580.121 169.222 580.117 170.388 580.114 171.588C580.114 172.807 580.114 174.027 580.114 175.283C580.113 178.636 580.108 181.989 580.101 185.343C580.095 188.843 580.095 192.344 580.093 195.845C580.09 202.478 580.082 209.111 580.072 215.745C580.061 223.295 580.055 230.845 580.05 238.395C580.04 253.93 580.022 269.465 580 285C586.93 285 593.86 285 601 285C601.33 226.59 601.66 168.18 602 108C602.33 108 602.66 108 603 108C603 167.07 603 226.14 603 287C595.08 287 587.16 287 579 287C579 303.83 579 320.66 579 338C571.08 338 563.16 338 555 338C555 346.58 555 355.16 555 364C546.75 364 538.5 364 530 364C530 372.25 530 380.5 530 389C521.75 389 513.5 389 505 389C505 397.25 505 405.5 505 414C496.42 414 487.84 414 479 414C479 405.42 479 396.84 479 388C477.02 388.33 475.04 388.66 473 389C471.421 389.074 469.839 389.108 468.258 389.098C467.501 389.095 466.745 389.093 465.965 389.09C464.559 389.076 464.559 389.076 463.125 389.062C458.608 389.032 458.608 389.032 454 389C454 396.92 454 404.84 454 413C461.92 413 469.84 413 478 413C478 421.58 478 430.16 478 439C470.08 439 462.16 439 454 439C454 430.75 454 422.5 454 414C445.42 414 436.84 414 428 414C428 405.42 428 396.84 428 388C436.25 388 444.5 388 453 388C453 379.75 453 371.5 453 363C461.58 363 470.16 363 479 363C479 354.75 479 346.5 479 338C487.25 338 495.5 338 504 338C504 329.75 504 321.5 504 313C512.25 313 520.5 313 529 313C529 295.84 529 278.68 529 261C521.08 261 513.16 261 505 261C505 252.75 505 244.5 505 236C521.5 236 538 236 555 236C555 252.5 555 269 555 286C562.59 286 570.18 286 578 286C578 244.42 578 202.84 578 160C446.99 160 315.98 160 181 160C181 201.91 181 243.82 181 287C173.08 287 165.16 287 157 287C157 227.93 157 168.86 157 108C142.81 108 128.62 108 114 108C114 81.27 114 54.54 114 27Z" fill="#D4A24C"/>
<path d="M138 820C297.39 820 456.78 820 621 820C621 828.91 621 837.82 621 847C461.61 847.33 302.22 847.66 138 848C138 838.76 138 829.52 138 820Z" fill="#4A7C59"/>
<path d="M181 108C312.34 108 443.68 108 579 108C579 116.91 579 125.82 579 135C447.66 135 316.32 135 181 135C181 126.09 181 117.18 181 108Z" fill="#4A7C59"/>
<path d="M357 670C371.85 670 386.7 670 402 670C402 677.92 402 685.84 402 694C410.58 694 419.16 694 428 694C428 702.58 428 711.16 428 720C444.83 720 461.66 720 479 720C479 728.58 479 737.16 479 746C413.66 746 348.32 746 281 746C281 737.42 281 728.84 281 720C296.84 720 312.68 720 329 720C328.96 711.817 328.96 711.817 328.91 703.635C328.907 702.622 328.905 701.61 328.902 700.566C328.897 699.524 328.892 698.482 328.886 697.408C329 695 329 695 330 694C332 693.912 334.002 693.893 336.004 693.902C337.219 693.906 338.434 693.909 339.686 693.912C340.965 693.92 342.244 693.929 343.562 693.938C344.846 693.942 346.129 693.947 347.451 693.951C350.634 693.963 353.817 693.981 357 694C357 686.08 357 678.16 357 670Z" fill="#4A7C59"/>
<path d="M677 134C685.58 134 694.16 134 703 134C703 167.99 703 201.98 703 237C711.58 237 720.16 237 729 237C729 253.5 729 270 729 287C737.58 287 746.16 287 755 287C755 321.65 755 356.3 755 392C746.42 392 737.84 392 729 392C729 407.18 729 422.36 729 438C720.42 438 711.84 438 703 438C703 422.82 703 407.64 703 392C711.25 392 719.5 392 728 392C728 357.35 728 322.7 728 287C719.75 287 711.5 287 703 287C703 270.83 703 254.66 703 238C694.42 238 685.84 238 677 238C677 203.68 677 169.36 677 134Z" fill="#D4A24C"/>
<path d="M224 211C259.97 211 295.94 211 333 211C333 218.92 333 226.84 333 235C305.28 235 277.56 235 249 235C249 251.83 249 268.66 249 286C257.58 286 266.16 286 275 286C275 302.83 275 319.66 275 337C283.58 337 292.16 337 301 337C301 345.58 301 354.16 301 363C292.42 363 283.84 363 275 363C275 354.75 275 346.5 275 338C267.08 338 259.16 338 251 338C251 330.08 251 322.16 251 314C243.74 314 236.48 314 229 314C229 305.09 229 296.18 229 287C221.74 287 214.48 287 207 287C207 269.84 207 252.68 207 235C212.61 235 218.22 235 224 235C224 227.08 224 219.16 224 211Z" fill="#D4A24C"/>
<path d="M403 413C411.558 413 419.541 413.264 428 414C428 422.25 428 430.5 428 439C436.25 439 444.5 439 453 439C453 455.5 453 472 453 489C461.25 489 469.5 489 478 489C478 497.25 478 505.5 478 514C470.08 514 462.16 514 454 514C454 522.58 454 531.16 454 540C461.92 540 469.84 540 478 540C478 548.25 478 556.5 478 565C469.75 565 461.5 565 453 565C453 556.75 453 548.5 453 540C444.75 540 436.5 540 428 540C428 531.42 428 522.84 428 514C419.75 514 411.5 514 403 514C403 480.67 403 447.34 403 413Z" fill="#D4A24C"/>
<path d="M530 313C538.25 313 546.5 313 555 313C555 329.83 555 346.66 555 364C546.75 364 538.5 364 530 364C530 372.25 530 380.5 530 389C521.75 389 513.5 389 505 389C505 397.25 505 405.5 505 414C496.42 414 487.84 414 479 414C479 405.42 479 397.84 479 389C476.5 389 476.5 388.836 473 389C471.421 389.074 469.839 389.108 468.258 389.098C467.501 389.095 466.745 389.093 465.965 389.09C465.028 389.081 464.091 389.072 463.125 389.062C460.114 389.042 457.102 389.021 454 389C454 396.92 454 404.84 454 413C461.92 413 469.84 413 478 413C478 421.58 478 430.16 478 439C470.08 439 462.16 439 454 439C454 430.75 454 422.5 454 414C445.42 414 436.84 414 428 414C428 405.42 428 396.84 428 388C436.25 388 444.5 388 453 388C453 379.75 453 371.5 453 363C469.83 363 486.66 363 504 363C504 355.08 504 347.16 504 339C513.688 338.562 513.688 338.562 516.714 338.432C517.513 338.394 518.313 338.356 519.137 338.316C520.354 338.261 520.354 338.261 521.596 338.205C524.453 338.007 524.453 338.007 529 337C529.33 329.08 529.66 321.16 530 313Z" fill="#D4A24C"/>
<path d="M504 540C512.58 540 521.16 540 530 540C530 548.58 530 557.16 530 566C538.25 566 546.5 566 555 566C555 574.58 555 583.16 555 592C562.92 592 570.84 592 579 592C579 600.58 579 609.16 579 618C570.75 618 562.5 618 554 618C554 642.42 554 666.84 554 692C545.75 692 537.5 692 529 692C529 667.58 529 643.16 529 618C521.08 618 513.16 618 505 618C505 609.09 505 600.18 505 591C512.92 591 520.84 591 529 591C529 582.75 529 574.5 529 566C520.75 566 512.5 566 504 566C504 557.42 504 548.84 504 540Z" fill="#D4A24C"/>
<path d="M703 520C711.58 520 720.16 520 729 520C729 534.85 729 549.7 729 565C737.58 565 746.16 565 755 565C755 598 755 631 755 665C746.42 665 737.84 665 729 665C729 681.17 729 697.34 729 714C720.42 714 711.84 714 703 714C703 697.83 703 681.66 703 665C711.25 665 719.5 665 728 665C728 632 728 599 728 565C719.75 565 711.5 565 703 565C703 550.15 703 535.3 703 520Z" fill="#D4A24C"/>
<path d="M52 692C52 710.15 52 728.3 52 747C60.58 747 69.16 747 78 747C78 779.34 78 811.68 78 845C69.42 845 60.84 845 52 845C52 812.99 52 780.98 52 748C43.75 748 35.5 748 27 748C27 729.85 27 711.7 27 693C51 692 51 692 52 692Z" fill="#D4A24C"/>
<path d="M355 645C370.51 645 386.02 645 402 645C402 652.92 402 660.84 402 669C410.58 669 419.16 669 428 669C428 677.25 428 685.5 428 694C419.42 694 410.84 694 402 694C402 686.08 402 678.16 402 670C387.15 670 372.3 670 357 670C357 677.92 357 685.84 357 694C343.635 694.495 343.635 694.495 330 695C329.67 703.25 329.34 711.5 329 720C313.49 720 297.98 720 282 720C282 711.42 282 702.84 282 694C297.51 694 313.02 694 329 694C329 685.75 329 677.5 329 669C337.58 669 346.16 669 355 669C355 661.08 355 653.16 355 645Z" fill="#D4A24C"/>
<path d="M25 55C33.58 55 42.16 55 51 55C51 81.07 51 107.14 51 134C59.91 134 68.82 134 78 134C78 151.16 78 168.32 78 186C69.09 186 60.18 186 51 186C51 169.17 51 152.34 51 135C42.42 135 33.84 135 25 135C25 108.6 25 82.2 25 55Z" fill="#D4A24C"/>
<path d="M506 237C521.51 237 537.02 237 553 237C553.33 253.83 553.66 270.66 554 288C561.92 288 569.84 288 578 288C578 304.17 578 320.34 578 337C570.74 337 563.48 337 556 337C555.67 329.08 555.34 321.16 555 313C546.75 312.67 538.5 312.34 530 312C530 294.84 530 277.68 530 260C522.08 260 514.16 260 506 260C506 252.41 506 244.82 506 237Z" fill="#D4A24C"/>
<path d="M26 565C34.58 565 43.16 565 52 565C52 575.56 52 586.12 52 597C43.42 597 34.84 597 26 597C26 628.35 26 659.7 26 692C17.75 692 9.5 692 1 692C1 660.32 1 628.64 1 596C9.25 596 17.5 596 26 596C26 585.77 26 575.54 26 565Z" fill="#D4A24C"/>
<path d="M258 389C266.58 389 275.16 389 284 389C284 396.92 284 404.84 284 413C292.58 413 301.16 413 310 413C310 421.58 310 430.16 310 439C317.92 439 325.84 439 334 439C334 455.5 334 472 334 489C326.08 489 318.16 489 310 489C310 497.25 310 505.5 310 514C301.42 514 292.84 514 284 514C284 505.75 284 497.5 284 489C292.25 489 300.5 489 309 489C309 472.5 309 456 309 439C300.75 439 292.5 439 284 439C284 430.75 284 422.5 284 414C275.42 414 266.84 414 258 414C258 405.75 258 397.5 258 389Z" fill="#D4A24C"/>
<path d="M390 261C427.62 261 465.24 261 504 261C504 269.58 504 278.16 504 287C466.38 287 428.76 287 390 287C390 278.42 390 269.84 390 261Z" fill="#D4A24C"/>
<path d="M677 715C685.58 715 694.16 715 703 715C703 749.65 703 784.3 703 820C694.42 820 685.84 820 677 820C677 785.35 677 750.7 677 715Z" fill="#D4A24C"/>
<path d="M78 465C78 498 78 531 78 565C69.42 565 60.84 565 52 565C52 532.33 52 499.66 52 466C60.4141 463.896 69.3269 465 78 465Z" fill="#D4A24C"/>
<path d="M354 413C362.25 413 370.5 413 379 413C379 446.33 379 479.66 379 514C370.75 514 362.5 514 354 514C354 480.67 354 447.34 354 413Z" fill="#D4A24C"/>
<path d="M677 439C685.58 439 694.16 439 703 439C703 465.73 703 492.46 703 520C694.42 520 685.84 520 677 520C677 493.27 677 466.54 677 439Z" fill="#D4A24C"/>
<path d="M0 339C8.58 339 17.16 339 26 339C26 364.74 26 390.48 26 417C17.42 417 8.84 417 0 417C0 391.26 0 365.52 0 339Z" fill="#D4A24C"/>
<path d="M51 263C59.91 263 68.82 263 78 263C78 279.5 78 296 78 313C69.42 313 60.84 313 52 313C52 321.58 52 330.16 52 339C43.42 339 34.84 339 26 339C26 330.42 26 321.84 26 313C34.25 313 42.5 313 51 313C51 296.5 51 280 51 263Z" fill="#D4A24C"/>
<path d="M78 187C86.58 187 95.16 187 104 187C104 212.08 104 237.16 104 263C95.42 263 86.84 263 78 263C78 237.92 78 212.84 78 187Z" fill="#D4A24C"/>
<path d="M453 489C461.25 489 469.5 489 478 489C478 497.25 478 505.5 478 514C470.08 514 462.16 514 454 514C454 522.58 454 531.16 454 540C461.92 540 469.84 540 478 540C478 548.25 478 556.5 478 565C469.75 565 461.5 565 453 565C453 556.75 453 548.5 453 540C444.75 540 436.5 540 428 540C428 531.42 428 522.84 428 514C431.629 513.274 434.276 512.879 437.863 512.902C438.663 512.905 439.463 512.907 440.286 512.91C441.285 512.919 442.284 512.928 443.312 512.938C448.108 512.968 448.108 512.968 453 513C453 505.08 453 497.16 453 489Z" fill="#D4A24C"/>
<path d="M453 364C461.25 364 469.5 364 478 364C478 371.92 478 379.84 478 388C474.437 388.713 471.865 389.122 468.355 389.098C467.217 389.094 467.217 389.094 466.055 389.09C465.109 389.081 464.163 389.072 463.188 389.062C460.156 389.042 457.124 389.021 454 389C454 396.92 454 404.84 454 413C461.92 413 469.84 413 478 413C478 421.58 478 430.16 478 439C470.08 439 462.16 439 454 439C454 430.75 454 422.5 454 414C445.42 414 436.84 414 428 414C428 405.42 428 396.84 428 388C436.25 388 444.5 388 453 388C453 380.08 453 372.16 453 364Z" fill="#D4A24C"/>
<path d="M554 618C562.25 618 570.5 618 579 618C579 642.75 579 667.5 579 693C570.75 693 562.5 693 554 693C554 668.25 554 643.5 554 618Z" fill="#4A7C59"/>
<path d="M530 619C537.59 619 545.18 619 553 619C553 642.76 553 666.52 553 691C545.41 691 537.82 691 530 691C530 667.24 530 643.48 530 619Z" fill="#D4A24C"/>
<path d="M51 0C59.91 0 68.82 0 78 0C78 18.15 78 36.3 78 55C69.09 55 60.18 55 51 55C51 36.85 51 18.7 51 0Z" fill="#D4A24C"/>
<path d="M333 235C351.81 235 370.62 235 390 235C390 243.58 390 252.16 390 261C371.19 261 352.38 261 333 261C333 252.42 333 243.84 333 235Z" fill="#D4A24C"/>
<path d="M257 514C265.58 514 274.16 514 283 514C283 522.58 283 531.16 283 540C274.75 540 266.5 540 258 540C258 548.58 258 557.16 258 566C249.75 566 241.5 566 233 566C231.695 563.39 231.887 561.473 231.902 558.555C231.906 557.1 231.906 557.1 231.91 555.617C231.919 554.382 231.928 553.147 231.937 551.875C231.958 547.956 231.979 544.037 232 540C240.25 540 248.5 540 257 540C257 531.42 257 522.84 257 514Z" fill="#D4A24C"/>
<path d="M206 566C214.58 566 223.16 566 232 566C232 574.58 232 583.16 232 592C223.42 592 214.84 592 206 592C206 600.91 206 609.82 206 619C198.08 619 190.16 619 182 619C182 609.76 182 600.52 182 591C189.92 591 197.84 591 206 591C206 582.75 206 574.5 206 566Z" fill="#D4A24C"/>
<path d="M428 694C444.83 694 461.66 694 479 694C479 702.58 479 711.16 479 720C462.17 720 445.34 720 428 720C428 711.42 428 702.84 428 694Z" fill="#D4A24C"/>
<path d="M207 338C215.58 338 224.16 338 233 338C233 346.58 233 355.16 233 364C241.25 364 249.5 364 258 364C258 372.25 258 380.5 258 389C249.42 389 240.84 389 232 389C232 380.75 232 372.5 232 364C223.75 364 215.5 364 207 364C207 355.42 207 346.84 207 338Z" fill="#D4A24C"/>
<path d="M703 81C711.25 81 719.5 81 728 81C728 98.49 728 115.98 728 134C719.75 134 711.5 134 703 134C703 116.51 703 99.02 703 81Z" fill="#D4A24C"/>
<path d="M181 287C189.25 287 197.5 287 206 287C206 303.83 206 320.66 206 338C197.75 338 189.5 338 181 338C181 321.17 181 304.34 181 287Z" fill="#D4A24C"/>
<path d="M26 417C34.58 417 43.16 417 52 417C52 433.17 52 449.34 52 466C43.42 466 34.84 466 26 466C26 449.83 26 433.66 26 417Z" fill="#D4A24C"/>
<path d="M555 748C562.92 748 570.84 748 579 748C579 755.92 579 763.84 579 772C562.83 772 546.66 772 530 772C530 764.74 530 757.48 530 750C538.25 750 546.5 750 555 750C555 749.34 555 748.68 555 748Z" fill="#4A7C59"/>
<path d="M26 565C34.58 565 43.16 565 52 565C52 575.56 52 586.12 52 597C43.42 597 34.84 597 26 597C26 628.35 26 659.7 26 692C17.75 692 9.5 692 1 692C1 660.32 1 628.64 1 596C9.25 596 17.5 596 26 596C26 585.77 26 575.54 26 565ZM2 598C2 628.69 2 659.38 2 691C9.59 691 17.18 691 25 691C25 660.31 25 629.62 25 598C17.41 598 9.82 598 2 598Z" fill="#D4A24C"/>
<path d="M229 619C236.26 619 243.52 619 251 619C251 635.17 251 651.34 251 668C243.74 668 236.48 668 229 668C229 651.83 229 635.66 229 619Z" fill="#D4A24C"/>
<path d="M602 108C602.33 108 602.66 108 603 108C603 167.07 603 226.14 603 287C595.08 287 587.16 287 579 287C579 303.83 579 320.66 579 338C571.08 338 563.16 338 555 338C555 329.75 555 321.5 555 313C546.42 313 537.84 313 529 313C529 295.84 529 278.68 529 261C521.08 261 513.16 261 505 261C505 252.75 505 244.5 505 236C521.5 236 538 236 555 236C555 252.5 555 269 555 286C562.59 286 570.18 286 578 286C578 244.42 578 202.84 578 160C578.66 160 579.32 160 580 160C580 201.25 580 242.5 580 285C586.93 285 593.86 285 601 285C601.33 226.59 601.66 168.18 602 108ZM506 237C506 244.59 506 252.18 506 260C513.92 260 521.84 260 530 260C530 277.16 530 294.32 530 312C538.25 312.33 546.5 312.66 555 313C555.495 324.88 555.495 324.88 556 337C563.26 337 570.52 337 578 337C578 320.83 578 304.66 578 288C570.08 288 562.16 288 554 288C553.67 271.17 553.34 254.34 553 237C537.49 237 521.98 237 506 237Z" fill="#D4A24C"/>
<path d="M356 669C379.76 669 403.52 669 428 669C428 677.25 428 685.5 428 694C419.42 694 410.84 694 402 694C402 686.08 402 678.16 402 670C387.15 670 372.3 670 357 670C357 677.92 357 685.84 357 694C356.67 694 356.34 694 356 694C356 685.75 356 677.5 356 669Z" fill="#D4A24C"/>
<path d="M504 540C512.58 540 521.16 540 530 540C530 556.83 530 573.66 530 591C529.67 591 529.34 591 529 591C529 582.75 529 574.5 529 566C520.75 566 512.5 566 504 566C504 557.42 504 548.84 504 540Z" fill="#D4A24C"/>
<path d="M555 488C563.25 488 571.5 488 580 488C580 496.91 580 505.82 580 515C571.75 515 563.5 515 555 515C555 506.09 555 497.18 555 488Z" fill="#D4A24C"/>
<path d="M504 339C512.25 339 520.5 339 529 339C529 347.25 529 355.5 529 364C521.08 364 513.16 364 505 364C505 371.92 505 379.84 505 388C504.67 388 504.34 388 504 388C504 380.08 504 372.16 504 364C498.39 364 492.78 364 487 364C487 363.67 487 363.34 487 363C492.61 363 498.22 363 504 363C504 355.08 504 347.16 504 339Z" fill="#4A7C59"/>
<path d="M402 619C410.25 619 418.5 619 427 619C427 627.58 427 636.16 427 645C418.75 645 410.5 645 402 645C402 636.42 402 627.84 402 619Z" fill="#D4A24C"/>
<path d="M277 566C285.25 566 293.5 566 302 566C302 574.58 302 583.16 302 592C293.75 592 285.5 592 277 592C277 583.42 277 574.84 277 566Z" fill="#D4A24C"/>
<path d="M303 540C311.25 540 319.5 540 328 540C328 548.58 328 557.16 328 566C319.75 566 311.5 566 303 566C303 557.42 303 548.84 303 540Z" fill="#D4A24C"/>
<path d="M479 514C487.25 514 495.5 514 504 514C504 522.58 504 531.16 504 540C495.75 540 487.5 540 479 540C479 531.42 479 522.84 479 514Z" fill="#D4A24C"/>
<path d="M329 514C337.25 514 345.5 514 354 514C354 522.58 354 531.16 354 540C345.75 540 337.5 540 329 540C329 531.42 329 522.84 329 514Z" fill="#D4A24C"/>
<path d="M136 369C144.25 369 152.5 369 161 369C161 377.58 161 386.16 161 395C152.75 395 144.5 395 136 395C136 386.42 136 377.84 136 369Z" fill="#D4A24C"/>
<path d="M355 591C362.59 591 370.18 591 378 591C378 600.24 378 609.48 378 619C370.41 619 362.82 619 355 619C355 609.76 355 600.52 355 591Z" fill="#D4A24C"/>
<path d="M328 389C336.58 389 345.16 389 354 389C354 396.92 354 404.84 354 413C346.125 414.125 346.125 414.125 342.16 414.098C341.029 414.094 341.029 414.094 339.875 414.09C338.947 414.081 338.019 414.072 337.062 414.062C332.577 414.032 332.577 414.032 328 414C328 405.75 328 397.5 328 389Z" fill="#D4A24C"/>
<path d="M479 388C487.25 388.33 495.5 388.66 504 389C504 397.25 504 405.5 504 414C495.75 414 487.5 414 479 414C479 405.42 479 396.84 479 388Z" fill="#D4A24C"/>
<path d="M479 566C487.25 566 495.5 566 504 566C504 574.25 504 582.5 504 591C495.75 591 487.5 591 479 591C479 582.75 479 574.5 479 566Z" fill="#D4A24C"/>
<path d="M505 364C513.25 364 521.5 364 530 364C530 372.25 530 380.5 530 389C521.75 389 513.5 389 505 389C505 380.75 505 372.5 505 364Z" fill="#D4A24C"/>
<path d="M301 363C309.25 363 317.5 363 326 363C326 371.25 326 379.5 326 388C317.75 388 309.5 388 301 388C301 379.75 301 371.5 301 363Z" fill="#D4A24C"/>
<path d="M448 313C456.25 313 464.5 313 473 313C473 321.25 473 329.5 473 338C464.75 338 456.5 338 448 338C448 329.75 448 321.5 448 313Z" fill="#D4A24C"/>
<path d="M301 286C309.25 286 317.5 286 326 286C326 294.25 326 302.5 326 311C317.75 311 309.5 311 301 311C301 302.75 301 294.5 301 286Z" fill="#D4A24C"/>
<path d="M530 592C537.92 592 545.84 592 554 592C554 600.58 554 609.16 554 618C546.08 618 538.16 618 530 618C530 609.42 530 600.84 530 592Z" fill="#4A7C59"/>
<path d="M155 522C162.92 522 170.84 522 179 522C179 530.58 179 539.16 179 548C171.08 548 163.16 548 155 548C155 539.42 155 530.84 155 522Z" fill="#D4A24C"/>
<path d="M355 363C362.92 363 370.84 363 379 363C379 371.58 379 380.16 379 389C371.08 389 363.16 389 355 389C355 380.42 355 371.84 355 363Z" fill="#D4A24C"/>
<path d="M428 489C436.25 489 444.5 489 453 489C453 496.92 453 504.84 453 513C440.625 513.495 440.625 513.495 428 514C428 505.75 428 497.5 428 489Z" fill="#4A7C59"/>
<path d="M377 540C384.92 540 392.84 540 401 540C401 548.25 401 556.5 401 565C393.08 565 385.16 565 377 565C377 556.75 377 548.5 377 540Z" fill="#D4A24C"/>
<path d="M598 415C605.92 415 613.84 415 622 415C622 423.25 622 431.5 622 440C614.08 440 606.16 440 598 440C598 431.75 598 423.5 598 415Z" fill="#D4A24C"/>
<path d="M376 314C383.92 314 391.84 314 400 314C400 322.25 400 330.5 400 339C392.08 339 384.16 339 376 339C376 330.75 376 322.5 376 314Z" fill="#D4A24C"/>
<path d="M530 313C537.92 313 545.84 313 554 313C554 321.25 554 329.5 554 338C546.08 338 538.16 338 530 338C530 329.75 530 321.5 530 313Z" fill="#4A7C59"/>
<path d="M330 670C338.25 670 346.5 670 355 670C355 677.59 355 685.18 355 693C346.75 693 338.5 693 330 693C330 685.41 330 677.82 330 670Z" fill="#D4A24C"/>
<path d="M531 567C538.59 567 546.18 567 554 567C554 574.92 554 582.84 554 591C546.41 591 538.82 591 531 591C531 583.08 531 575.16 531 567Z" fill="#D4A24C"/>
<path d="M285 415C292.59 415 300.18 415 308 415C308 422.59 308 430.18 308 438C300.41 438 292.82 438 285 438C285 430.41 285 422.82 285 415Z" fill="#D4A24C"/>
<path d="M260 390C267.59 390 275.18 390 283 390C283 397.59 283 405.18 283 413C275.41 413 267.82 413 260 413C260 405.41 260 397.82 260 390Z" fill="#D4A24C"/>
<path d="M506 593C513.26 593 520.52 593 528 593C528 600.92 528 608.84 528 617C520.74 617 513.48 617 506 617C506 609.08 506 601.16 506 593Z" fill="#D4A24C"/>
<path d="M253 594C260.26 594 267.52 594 275 594C275 601.92 275 609.84 275 618C267.74 617.67 260.48 617.34 253 617C253 609.41 253 601.82 253 594Z" fill="#D4A24C"/>
<path d="M25 55C33.58 55 42.16 55 51 55C51 81.07 51 107.14 51 134C59.91 134 68.82 134 78 134C78 151.16 78 168.32 78 186C69.09 186 60.18 186 51 186C51 169.17 51 152.34 51 135C42.42 135 33.84 135 25 135C25 108.6 25 82.2 25 55ZM27 56C27 81.41 27 106.82 27 133C34.59 133 42.18 133 50 133C50 107.59 50 82.18 50 56C42.41 56 34.82 56 27 56ZM52 135C52 151.5 52 168 52 185C59.92 185 67.84 185 76 185C77.2195 184.001 77.2195 184.001 77.1203 182.02C77.118 181.151 77.1158 180.283 77.1135 179.388C77.1134 177.917 77.1134 177.917 77.1133 176.416C77.1081 175.349 77.103 174.283 77.0977 173.184C77.0962 172.097 77.0948 171.011 77.0934 169.892C77.0878 166.407 77.0752 162.922 77.0625 159.438C77.0575 157.081 77.0529 154.725 77.0488 152.369C77.0386 146.579 77.0191 140.79 77 135C68.75 135 60.5 135 52 135Z" fill="#D4A24C"/>
<path d="M530 566C538.25 566 546.5 566 555 566C555 574.58 555 583.16 555 592C546.75 592 538.5 592 530 592C530 600.58 530 609.16 530 618C537.92 618 545.84 618 554 618C554 642.42 554 666.84 554 692C545.75 692 537.5 692 529 692C529 667.58 529 643.16 529 618C521.08 618 513.16 618 505 618C505 609.09 505 600.18 505 591C513.25 591 521.5 591 530 591C530 582.75 530 574.5 530 566ZM531 567C531 574.92 531 582.84 531 591C538.59 591 546.18 591 554 591C554 583.08 554 575.16 554 567C546.41 567 538.82 567 531 567ZM506 593C506 600.92 506 608.84 506 617C513.26 617 520.52 617 528 617C528 609.08 528 601.16 528 593C520.74 593 513.48 593 506 593ZM530 619C530 642.76 530 666.52 530 691C537.59 691 545.18 691 553 691C553 667.24 553 643.48 553 619C545.41 619 537.82 619 530 619Z" fill="#D4A24C"/>
<path d="M248 235C248.33 235 248.66 235 249 235C249 251.83 249 268.66 249 286C257.58 286 266.16 286 275 286C275 302.83 275 319.66 275 337C283.58 337 292.16 337 301 337C301 345.58 301 354.16 301 363C292.42 363 283.84 363 275 363C275 354.75 275 346.5 275 338C267.41 338 259.82 338 252 338C252 330.08 252 322.16 252 314C252.33 314 252.66 314 253 314C253 321.59 253 329.18 253 337C262.9 336.505 262.9 336.505 273 336C273 320.16 273 304.32 273 288C265.08 288 257.16 288 249 288C248 287 248 287 247.88 284.906C247.883 283.523 247.883 283.523 247.887 282.113C247.887 281.072 247.887 280.031 247.887 278.958C247.892 277.826 247.897 276.694 247.902 275.527C247.904 274.375 247.905 273.222 247.907 272.034C247.912 268.335 247.925 264.636 247.938 260.938C247.943 258.437 247.947 255.936 247.951 253.436C247.962 247.29 247.979 241.145 248 235ZM276 339C276 346.59 276 354.18 276 362C283.59 362 291.18 362 299 362C299 354.08 299 346.16 299 338C287.151 337.819 287.151 337.819 276 339Z" fill="#D4A24C"/>
<path d="M206 566C214.58 566 223.16 566 232 566C232 574.58 232 583.16 232 592C223.42 592 214.84 592 206 592C206 600.91 206 609.82 206 619C198.08 619 190.16 619 182 619C182 609.76 182 600.52 182 591C189.92 591 197.84 591 206 591C206 582.75 206 574.5 206 566ZM207 568C207.33 575.26 207.66 582.52 208 590C215.59 590.33 223.18 590.66 231 591C231 583.41 231 575.82 231 568C223.08 568 215.16 568 207 568ZM183 593C183 601.25 183 609.5 183 618C189.93 618 196.86 618 204 618C204 609.75 204 601.5 204 593C197.07 593 190.14 593 183 593Z" fill="#D4A24C"/>
<path d="M257 514C265.58 514 274.16 514 283 514C283 522.58 283 531.16 283 540C282.34 540 281.68 540 281 540C281.33 532.08 281.66 524.16 282 516C274.41 516 266.82 516 259 516C259 523.59 259 531.18 259 539C265.6 539 272.2 539 279 539C279 539.33 279 539.66 279 540C272.07 540 265.14 540 258 540C258 548.58 258 557.16 258 566C249.75 566 241.5 566 233 566C231.695 563.39 231.887 561.473 231.902 558.555C231.906 557.1 231.906 557.1 231.91 555.617C231.919 554.382 231.928 553.147 231.937 551.875C231.958 547.956 231.979 544.037 232 540C240.25 540 248.5 540 257 540C257 531.42 257 522.84 257 514ZM247.355 541.219C246.596 541.259 245.837 541.3 245.055 541.342C243.636 541.42 243.636 541.42 242.187 541.5C239.156 541.665 236.124 541.83 233 542C233.33 549.59 233.66 557.18 234 565C241.59 565 249.18 565 257 565C257 557.08 257 549.16 257 541C253.752 541 250.588 541.043 247.355 541.219Z" fill="#D4A24C"/>
<path d="M677 237C694.16 237 711.32 237 729 237C729 253.5 729 270 729 287C720.42 287 711.84 287 703 287C703 270.83 703 254.66 703 238C694.42 238 685.84 238 677 238C677 237.67 677 237.34 677 237ZM704 239C704 254.51 704 270.02 704 286C711.59 286 719.18 286 727 286C727 270.49 727 254.98 727 239C719.41 239 711.82 239 704 239Z" fill="#D4A24C"/>
<path d="M26 417C34.58 417 43.16 417 52 417C52 433.17 52 449.34 52 466C43.42 466 34.84 466 26 466C26 449.83 26 433.66 26 417ZM27 418C27 433.18 27 448.36 27 464C34.59 464 42.18 464 50 464C50 448.82 50 433.64 50 418C42.41 418 34.82 418 27 418Z" fill="#D4A24C"/>
<path d="M504 313C504.66 313 505.32 313 506 313C506 320.92 506 328.84 506 337C513.26 337 520.52 337 528 337C528 329.41 528 321.82 528 314C521.07 314 514.14 314 507 314C507 313.67 507 313.34 507 313C514.59 313 522.18 313 530 313C530 320.92 530 328.84 530 337C523.25 339.25 523.25 339.25 519.039 339.195C518.242 339.19 517.445 339.185 516.624 339.18C515.634 339.162 514.645 339.144 513.625 339.125C510.449 339.084 507.273 339.043 504 339C504 330.42 504 321.84 504 313Z" fill="#D4A24C"/>
<path d="M478 489C478.33 489 478.66 489 479 489C479 514.08 479 539.16 479 565C487.25 565 495.5 565 504 565C504 565.33 504 565.66 504 566C495.75 566 487.5 566 479 566C479 574.25 479 582.5 479 591C478.67 591 478.34 591 478 591C478 582.75 478 574.5 478 566C469.75 566 461.5 566 453 566C453 565.67 453 565.34 453 565C461.25 565 469.5 565 478 565C478 539.92 478 514.84 478 489Z" fill="#D4A24C"/>
<path d="M301 286C309.25 286 317.5 286 326 286C326 294.25 326 302.5 326 311C317.75 311 309.5 311 301 311C301 302.75 301 294.5 301 286ZM303 288C303 295.26 303 302.52 303 310C310.26 310 317.52 310 325 310C325 302.74 325 295.48 325 288C317.74 288 310.48 288 303 288Z" fill="#D4A24C"/>
<path d="M554 313C554.33 313 554.66 313 555 313C555 321.58 555 330.16 555 339C546.75 339 538.5 339 530 339C530 347.25 530 355.5 530 364C529.67 364 529.34 364 529 364C529 355.75 529 347.5 529 339C527.35 339 525.7 339 524 339C524 338.67 524 338.34 524 338C528.047 337.22 531.722 336.922 535.836 337.121C536.795 337.164 537.755 337.207 538.744 337.252C539.942 337.313 541.14 337.374 542.375 337.438C546.211 337.623 550.047 337.809 554 338C554 329.75 554 321.5 554 313Z" fill="#D4A24C"/>
<path d="M404 413C407.63 413 411.26 413 415 413C415 413.33 415 413.66 415 414C418.96 414.33 422.92 414.66 427 415C427 415.33 427 415.66 427 416C419.74 416 412.48 416 405 416C405 423.26 405 430.52 405 438C404.67 438 404.34 438 404 438C404 429.75 404 421.5 404 413Z" fill="#D4A24C"/>
<rect x="486" y="361" width="18" height="3" fill="#D4A24C"/>
<rect x="495" y="364" width="18" height="24" fill="#D4A24C"/>
</svg>
