<?xml version="1.0" standalone="no"?>
<!DOCTYPE svg PUBLIC "-//W3C//DTD SVG 20010904//EN" "http://www.w3.org/TR/2001/REC-SVG-20010904/DTD/svg10.dtd">
<svg xmlns="http://www.w3.org/2000/svg" version="1.0" width="512.000000pt" height="512.000000pt" viewBox="0 0 512.000000 512.000000" preserveAspectRatio="xMidYMid meet">
<metadata>
Created by potrace 1.16, written by Peter Selinger 2001-2019
<meta name="Producer" content="Online-Convert"/></metadata>
<g transform="translate(0.000000,512.000000) scale(0.100000,-0.100000)" fill="#4A7C59" stroke="none">
<path d="M3605 4496 c-188 -44 -348 -152 -449 -305 -75 -113 -107 -207 -122 -358 l-7 -73 -1101 -2 c-1058 -3 -1102 -4 -1139 -22 -49 -24 -92 -67 -120 -120 l-22 -41 0 -1390 0 -1390 29 -53 c16 -28 44 -63 62 -77 76 -58 -2 -55 1488 -55 l1371 0 50 24 c28 13 64 39 82 57 67 71 63 -9 63 1244 l0 1135 26 0 c117 0 317 88 423 186 158 146 234 321 234 534 0 129 -17 203 -80 330 -81 165 -237 298 -418 356 -100 32 -277 42 -370 20z m289 -151 c265 -69 453 -328 433 -595 -11 -141 -78 -282 -180 -376 -115 -107 -237 -157 -387 -157 -164 -1 -286 50 -407 169 -132 129 -192 304 -165 485 32 224 203 414 425 474 70 18 209 19 281 0z m-2532 -772 c-41 -52 -146 -151 -212 -200 -108 -80 -265 -153 -332 -153 l-28 0 0 161 0 161 34 34 34 34 267 0 267 0 -30 -37z m964 -1 c-49 -138 -135 -234 -273 -305 -139 -71 -237 -99 -589 -172 -344 -70 -529 -130 -633 -204 -16 -12 -32 -21 -35 -21 -3 0 -6 44 -6 98 l0 97 88 17 c107 21 257 93 369 177 99 74 238 219 283 293 l35 57 387 1 387 0 -13 -38z m752 -29 c28 -80 82 -172 133 -228 l37 -40 -34 -74 c-83 -180 -218 -334 -354 -405 -137 -72 -226 -93 -551 -130 -118 -14 -260 -35 -315 -46 -251 -54 -478 -187 -635 -372 -114 -134 -242 -254 -304 -283 -80 -40 -165 -45 -223 -16 l-42 21 0 340 0 340 38 42 c78 87 215 154 413 203 57 14 201 45 320 70 352 73 494 122 646 222 133 87 218 200 263 351 l22 72 282 0 281 0 23 -67z m371 -407 c39 -19 100 -40 136 -47 98 -19 92 -37 -47 -129 -140 -92 -267 -215 -302 -290 -30 -63 -35 -150 -12 -204 23 -54 84 -104 196 -159 78 -38 121 -66 168 -112 l62 -61 0 -78 c0 -59 -3 -75 -12 -70 -7 5 -51 33 -98 63 -287 185 -550 273 -765 258 -201 -14 -392 -103 -463 -215 -51 -80 -62 -137 -73 -372 -5 -118 -16 -270 -24 -337 -30 -243 -13 -417 60 -606 7 -16 -2 -17 -136 -15 l-144 3 -27 50 c-52 96 -80 193 -85 302 -7 120 2 164 58 277 49 101 58 164 34 236 -45 135 -212 218 -415 207 -118 -6 -209 -34 -292 -90 -58 -39 -84 -67 -180 -196 -69 -92 -185 -135 -272 -101 l-26 10 0 171 0 171 23 -6 c49 -15 136 -18 190 -6 138 28 266 121 417 301 126 150 218 226 355 294 145 73 254 99 558 136 283 33 389 54 503 98 204 79 380 251 495 484 18 37 36 67 40 67 4 0 39 -15 78 -34z m201 -537 l0 -251 -32 22 c-18 12 -74 41 -124 65 -90 43 -144 89 -144 124 0 23 50 98 92 137 40 38 190 153 201 154 4 0 7 -113 7 -251z m-699 -449 c152 -29 297 -95 546 -250 l153 -95 0 -137 c0 -109 -3 -138 -13 -138 -22 0 -169 92 -300 188 -326 238 -458 301 -577 272 -74 -18 -110 -59 -158 -182 -68 -175 -77 -215 -77 -383 0 -127 4 -162 23 -230 30 -103 96 -242 166 -350 l56 -85 -159 0 -158 0 -31 62 c-72 148 -85 283 -58 586 9 103 20 264 25 357 9 187 18 221 72 273 41 40 136 87 215 106 71 17 201 20 275 6z m-44 -329 c74 -35 137 -77 340 -223 178 -128 286 -192 354 -209 l49 -13 0 -265 c0 -246 -2 -268 -20 -298 -10 -17 -28 -37 -39 -43 -14 -7 -123 -9 -332 -8 l-312 3 -68 100 c-76 110 -146 245 -180 345 -30 89 -37 277 -15 373 19 80 73 225 94 250 21 25 58 21 129 -12z m-1164 -159 c61 -27 97 -66 97 -105 0 -17 -16 -62 -36 -99 -93 -181 -98 -409 -13 -613 16 -38 29 -73 29 -77 0 -5 -26 -8 -59 -8 l-59 0 -25 69 c-42 113 -57 185 -67 315 -12 170 -38 216 -125 216 -46 0 -97 -28 -230 -125 -44 -32 -118 -76 -165 -99 -80 -39 -90 -41 -175 -41 -129 0 -125 -3 -125 107 l0 93 98 0 c86 0 104 3 153 28 77 37 141 96 199 182 27 40 64 85 82 100 104 88 293 114 421 57z m-275 -585 c10 -96 40 -228 67 -299 7 -17 -13 -18 -335 -18 l-342 0 -34 34 c-31 31 -34 39 -34 95 l0 60 78 -5 c152 -11 289 38 473 170 57 41 106 75 109 75 3 1 11 -50 18 -112z"/>
<path d="M3825 4088 c-126 -60 -235 -115 -242 -121 -25 -25 -236 -483 -236 -514 -1 -38 16 -60 53 -68 23 -5 75 16 267 106 131 62 246 119 255 128 26 24 241 482 241 513 0 15 -8 37 -18 48 -34 37 -76 25 -320 -92z"/>
<path d="M1696 3469 c-52 -41 -23 -129 44 -129 67 0 96 88 44 129 -15 12 -34 21 -44 21 -10 0 -29 -9 -44 -21z"/>
<path d="M2780 3564 c-98 -19 -183 -72 -233 -147 -19 -29 -47 -89 -62 -135 -15 -46 -41 -101 -58 -124 -33 -42 -46 -50 -189 -119 -101 -47 -138 -84 -138 -135 0 -80 43 -104 188 -104 254 0 552 95 654 209 88 98 148 259 133 355 -14 82 -67 151 -141 182 -36 15 -118 24 -154 18z m128 -180 c21 -24 23 -35 19 -75 -7 -55 -54 -153 -96 -202 -38 -43 -138 -89 -265 -121 -132 -35 -150 -34 -99 3 73 53 124 132 163 255 38 116 118 181 210 172 33 -3 50 -11 68 -32z"/>
<path d="M1890 2913 c-40 -52 -9 -117 56 -117 66 0 95 65 53 118 -29 37 -80 36 -109 -1z"/>
<path d="M1071 2434 c-12 -15 -21 -34 -21 -44 0 -10 9 -29 21 -44 41 -52 129 -23 129 44 0 67 -88 96 -129 44z"/>
<path d="M2053 2320 c-70 -28 -47 -140 28 -140 78 0 100 114 28 139 -18 6 -32 11 -33 10 -1 0 -11 -4 -23 -9z"/>
<path d="M1825 2030 c-42 -46 -10 -120 52 -120 42 0 73 30 73 70 0 62 -84 95 -125 50z"/>
<path d="M2920 1420 c-24 -24 -27 -82 -4 -104 27 -27 63 -31 92 -9 44 33 42 101 -3 121 -37 17 -62 15 -85 -8z"/>
<path d="M3266 1079 c-52 -41 -21 -129 46 -129 38 0 68 32 68 73 0 38 -7 50 -37 66 -31 16 -47 14 -77 -10z"/>
<path d="M1842 4230 c-45 -19 -51 -96 -9 -125 49 -34 117 1 117 60 0 24 -7 39 -26 54 -29 23 -46 25 -82 11z"/>
<path d="M980 4210 c-30 -30 -26 -80 10 -115 l29 -28 -29 -34 c-49 -56 -37 -123 25 -139 25 -6 58 7 92 39 l22 20 36 -32 c41 -35 73 -39 106 -12 34 27 31 82 -6 121 l-29 30 21 22 c32 35 45 67 37 91 -19 64 -81 76 -136 28 l-33 -29 -33 29 c-38 34 -83 38 -112 9z"/>
</g>
</svg>
